<svg xmlns="http://www.w3.org/2000/svg" width="371.471" height="373.669" viewBox="0 0 371.471 373.669">
  <g id="Group_3" data-name="Group 3" transform="translate(-284.125 -5699.955)">
    <g id="Group_1" data-name="Group 1" opacity="0.13">
      <path id="Path_2" data-name="Path 2" d="M624.4,5835.455l0-.017,0-.016a35.64,35.64,0,0,0,14.715-11.452c13.083-18.009,4.55-46.925-9.535-62.685-11.842-13.248-25.708-18.379-30.514-17.915-.689.067-4.047.516-6.887.929a57.3,57.3,0,0,0-7.055,1.422l-.012,0a100.291,100.291,0,0,0-2.793-17.522c-2.157-8.5-3.76-14.527-8.828-20.13-2.228-2.464-8.6-9.506-15.5-7.862-4.318,1.028-6.729,4.954-7.617,6.611a91.738,91.738,0,0,1,9.2,25.273,89.9,89.9,0,0,1,1.8,19.784l-.306.08.3.5c0,.026,0,.054,0,.08-8.06,2.786-11.757,7.237-13.44,9.818-1.474,2.261-2.308,4.475-4.64,13.685-1.576,6.224-2.852,11.755-3.863,16.387l-20.175,10,28.266,59.951a186.914,186.914,0,0,0,34.759-6.018C614.318,5847.6,624.4,5835.467,624.4,5835.455Z"/>
      <path id="Path_3" data-name="Path 3" d="M559.28,5700a16.356,16.356,0,0,1,6.689.874c8.069,2.9,11.358,11.879,14.418,20.232a78.387,78.387,0,0,1,4.689,24.218l-2.455,1.522A78.755,78.755,0,0,0,559.28,5700Z"/>
      <rect id="Rectangle_1" data-name="Rectangle 1" width="67.843" height="27.035" rx="5.811" transform="translate(558.58 5755.781) rotate(-19.961)"/>
      <rect id="Rectangle_2" data-name="Rectangle 2" width="77.619" height="25.373" rx="5.811" transform="translate(563.88 5784.692) rotate(-19.961)"/>
      <rect id="Rectangle_3" data-name="Rectangle 3" width="67.843" height="26.747" rx="5.811" transform="translate(582.219 5803.672) rotate(-19.961)"/>
      <rect id="Rectangle_4" data-name="Rectangle 4" width="67.843" height="26.747" rx="5.811" transform="translate(582.697 5829.926) rotate(-19.961)"/>
      <path id="Path_4" data-name="Path 4" d="M524.819,5799.661c6.009,9.886,19.774,29.3,44.934,41.883A107.582,107.582,0,0,0,601.38,5851.6c-7.96,2.335-16.58,4.54-25.822,6.46-6.95,1.445-13.63,2.6-20,3.519a141.752,141.752,0,0,1-30.743-61.915Z"/>
      <path id="Path_5" data-name="Path 5" d="M292.454,6042.879l226.783-240.451,61.994,70.9-169.794,199.3Z"/>
      <path id="Path_6" data-name="Path 6" d="M372.942,6063,563.1,5852.591l18.132,20.736-169.794,199.3Z"/>
      <path id="Path_7" data-name="Path 7" d="M582.723,5744.925c-6.085,3.5-8.22,5.045-8.039,5.419.417.864,13.429-3.964,13.1-5.269C587.658,5744.58,585.621,5744.616,582.723,5744.925Z"/>
    </g>
    <g id="Group_2" data-name="Group 2">
      <path id="Path_8" data-name="Path 8" d="M616.068,5836.455l0-.017,0-.016a35.64,35.64,0,0,0,14.715-11.452c13.083-18.009,4.55-46.925-9.536-62.685-11.841-13.248-25.708-18.379-30.513-17.915-.689.067-4.047.516-6.887.929a57.226,57.226,0,0,0-7.055,1.422l-.012,0a100.284,100.284,0,0,0-2.793-17.522c-2.157-8.5-3.76-14.527-8.828-20.13-2.228-2.464-8.6-9.506-15.5-7.862-4.318,1.028-6.73,4.954-7.617,6.611a91.742,91.742,0,0,1,9.2,25.273,89.84,89.84,0,0,1,1.8,19.784l-.3.08.3.5c0,.026,0,.054,0,.08-8.059,2.786-11.756,7.237-13.439,9.818-1.475,2.261-2.309,4.475-4.641,13.685-1.576,6.224-2.851,11.755-3.863,16.387l-20.174,10q14.133,29.976,28.265,59.951a186.884,186.884,0,0,0,34.759-6.018C605.989,5848.6,616.07,5836.467,616.068,5836.455Z" fill="#f5bba7"/>
      <path id="Path_9" data-name="Path 9" d="M550.951,5701a16.358,16.358,0,0,1,6.689.874c8.068,2.9,11.357,11.879,14.418,20.232a78.389,78.389,0,0,1,4.688,24.218l-2.454,1.522A78.77,78.77,0,0,0,550.951,5701Z" fill="#e2a498"/>
      <rect id="Rectangle_5" data-name="Rectangle 5" width="67.843" height="27.035" rx="5.811" transform="translate(550.25 5756.781) rotate(-19.961)" fill="#f5bba7"/>
      <rect id="Rectangle_6" data-name="Rectangle 6" width="77.619" height="25.373" rx="5.811" transform="translate(555.55 5785.692) rotate(-19.961)" fill="#f5bba7"/>
      <rect id="Rectangle_7" data-name="Rectangle 7" width="67.843" height="26.747" rx="5.811" transform="translate(573.89 5804.672) rotate(-19.961)" fill="#f5bba7"/>
      <rect id="Rectangle_8" data-name="Rectangle 8" width="67.843" height="26.747" rx="5.811" transform="translate(574.367 5830.926) rotate(-19.961)" fill="#f5bba7"/>
      <path id="Path_10" data-name="Path 10" d="M516.49,5800.661c6.009,9.886,19.773,29.3,44.934,41.883a107.572,107.572,0,0,0,31.627,10.053c-7.96,2.335-16.581,4.54-25.823,6.46-6.95,1.445-13.629,2.6-20,3.519a141.751,141.751,0,0,1-30.743-61.915Z" fill="#e2a498"/>
      <path id="Path_11" data-name="Path 11" d="M284.125,6043.879l226.783-240.451,61.994,70.9-169.794,199.3Z" fill="#25364a"/>
      <path id="Path_12" data-name="Path 12" d="M364.613,6064l190.157-210.41,18.132,20.736-169.794,199.3Z" fill="#1c293a"/>
      <path id="Path_13" data-name="Path 13" d="M574.394,5745.925c-6.085,3.5-8.22,5.045-8.04,5.419.417.864,13.43-3.964,13.1-5.269C579.329,5745.58,577.292,5745.616,574.394,5745.925Z" fill="#e2a498"/>
    </g>
  </g>
</svg>
