<svg xmlns="http://www.w3.org/2000/svg" width="148.054" height="207.16" viewBox="0 0 148.054 207.16">
  <g id="Group_42" data-name="Group 42" transform="translate(-890.481 -4184.441)">
    <g id="Group_40" data-name="Group 40" opacity="0.08">
      <path id="Path_69" data-name="Path 69" d="M921.268,4304.591a75.88,75.88,0,0,1-10.248-11.015c-9.949-13.456-14.732-28.594-13.411-45.238,2.054-25.876,14.943-44.9,37.968-56.865,10.358-5.383,21.548-7.437,33.19-6.967,26.768,1.081,51.024,18.281,60.4,43.539,9.138,24.606,5.216,47.415-10.946,68.092a72.367,72.367,0,0,1-8.161,8.414q-1.041.81-2.079,1.62a67.534,67.534,0,0,1-39.637,14.668,80.271,80.271,0,0,1-12.61-.58,5.543,5.543,0,0,0-.55-.144,68.222,68.222,0,0,1-22.887-7.891A80.467,80.467,0,0,1,921.268,4304.591Zm46.915,3.543c.081.128.158.125.233,0a40.772,40.772,0,0,0,6.929-.776,54.653,54.653,0,0,0,16.3-5.591,55.5,55.5,0,0,0,15.192-11.87,58.174,58.174,0,0,0,8.241-11.811,53.068,53.068,0,0,0,5.994-21.017,56.534,56.534,0,0,0-.6-13.615,55.5,55.5,0,0,0-34.267-42.416,54.6,54.6,0,0,0-22.191-3.908,52.883,52.883,0,0,0-9.861,1.132,51.135,51.135,0,0,0-12.745,4.328,57.027,57.027,0,0,0-9.885,6.188,50.122,50.122,0,0,0-7.637,7.207,48.981,48.981,0,0,0-5.2,6.9,47.691,47.691,0,0,0-3.991,7.689c-.587,1.6-1.285,3.149-1.846,4.766a53.2,53.2,0,0,0-2.669,14.443,44.906,44.906,0,0,0,.169,8.717,64.932,64.932,0,0,0,1.87,9.507,56.415,56.415,0,0,0,4.044,10.064,54.133,54.133,0,0,0,7.791,11.41,75.792,75.792,0,0,0,6.672,6.419,31.676,31.676,0,0,0,5.565,3.971,77.732,77.732,0,0,0,8.069,4.109,66.773,66.773,0,0,0,7.679,2.549,51.221,51.221,0,0,0,9.109,1.527c1.168.1,2.379.622,3.578.091Z"/>
      <path id="Path_70" data-name="Path 70" d="M1012.612,4309.034q3.378,5.815,6.756,11.631,8.5,14.679,16.984,29.361c.019.034.037.068.052.1.631,1.474,2.12,2.658,2.131,4.251.011,1.513-.712,3.033-1.118,4.549q-4.212,15.753-8.414,31.509c-.241.906-.439,1.293-1.591.979-10.782-2.942-21.571-5.865-32.4-8.621a8.477,8.477,0,0,1-5.967-4.423c-6.48-11.611-13.251-23.06-19.918-34.567q-1.727-2.982-3.452-5.963c-1.711-2.98-3.436-5.952-5.124-8.944a18.862,18.862,0,0,1-1.78-3.262,29.115,29.115,0,0,0,5.356.4,69.509,69.509,0,0,0,10.4-.6,68.314,68.314,0,0,0,13.626-2.931A73.605,73.605,0,0,0,1012.612,4309.034Z"/>
      <path id="Path_71" data-name="Path 71" d="M963.364,4341.76q-11.266,19.52-22.52,39.046a2.215,2.215,0,0,1-1.461,1.146q-17.872,4.764-35.732,9.577c-.693.187-.918.021-1.1-.646q-4.835-18.034-9.732-36.052a1.775,1.775,0,0,1,.294-1.494q7.824-13.543,15.647-27.088,4.718-8.166,9.444-16.326a6.768,6.768,0,0,1,.466-.633c.48-.07.767.235,1.094.515a56.743,56.743,0,0,0,6.576,4.786,68.877,68.877,0,0,0,10.748,5.64,73.232,73.232,0,0,0,13.875,4.293c.923.178,2.082.055,2.67,1.055,2.267,3.857,4.466,7.756,6.761,11.6C961.329,4338.736,961.963,4340.5,963.364,4341.76Z"/>
      <path id="Path_72" data-name="Path 72" d="M1012.612,4309.034a73.605,73.605,0,0,1-24.465,13.479,68.314,68.314,0,0,1-13.626,2.931,69.509,69.509,0,0,1-10.4.6,29.132,29.132,0,0,1-5.357-.4,31.37,31.37,0,0,1-3.03-5.378,80.271,80.271,0,0,0,12.61.58,67.534,67.534,0,0,0,39.637-14.668q1.037-.812,2.079-1.62Z"/>
      <path id="Path_73" data-name="Path 73" d="M955.738,4320.259a31.37,31.37,0,0,0,3.03,5.378,18.933,18.933,0,0,0,1.781,3.262c1.688,2.992,3.413,5.964,5.124,8.944q-1.155,1.958-2.309,3.917c-1.4-1.26-2.035-3.024-2.967-4.584-2.295-3.841-4.494-7.74-6.761-11.6-.588-1-1.747-.877-2.67-1.055a73.232,73.232,0,0,1-13.875-4.293,68.877,68.877,0,0,1-10.748-5.64,56.743,56.743,0,0,1-6.576-4.786c-.327-.28-.614-.585-1.094-.515a52.39,52.39,0,0,1,2.594-4.7,80.537,80.537,0,0,0,11.034,7.633,68.222,68.222,0,0,0,22.887,7.891A5.543,5.543,0,0,1,955.738,4320.259Z"/>
      <path id="Path_74" data-name="Path 74" d="M964.728,4308.137c-1.2.531-2.41.006-3.578-.091a51.221,51.221,0,0,1-9.109-1.527,66.773,66.773,0,0,1-7.679-2.549,77.732,77.732,0,0,1-8.069-4.109,31.676,31.676,0,0,1-5.565-3.971,75.792,75.792,0,0,1-6.672-6.419,54.133,54.133,0,0,1-7.791-11.41A56.415,56.415,0,0,1,912.221,4268a64.932,64.932,0,0,1-1.87-9.507,44.906,44.906,0,0,1-.169-8.717,53.2,53.2,0,0,1,2.669-14.443c.561-1.617,1.259-3.167,1.846-4.766a47.691,47.691,0,0,1,3.991-7.689,48.981,48.981,0,0,1,5.2-6.9,50.122,50.122,0,0,1,7.637-7.207,57.027,57.027,0,0,1,9.885-6.188,51.135,51.135,0,0,1,12.745-4.328,52.883,52.883,0,0,1,9.861-1.132c1.36.377,2.784.259,4.156.511a69.221,69.221,0,0,1,10.52,2.689,56.05,56.05,0,0,1,14.043,7.422,57.217,57.217,0,0,1,9.26,8.513,50.209,50.209,0,0,1,6.332,8.831,54.925,54.925,0,0,1,6.474,18.148,56.577,56.577,0,0,1,.505,15.865,55.205,55.205,0,0,1-3.138,12.98,54.4,54.4,0,0,1-7.134,13.264,52.09,52.09,0,0,1-8.155,8.977,63.338,63.338,0,0,1-6.86,5.16,51.713,51.713,0,0,1-11.737,5.657,58.575,58.575,0,0,1-9.31,2.326A20.368,20.368,0,0,0,964.728,4308.137Z"/>
      <path id="Path_75" data-name="Path 75" d="M964.728,4308.137a20.368,20.368,0,0,1,4.242-.669,58.575,58.575,0,0,0,9.31-2.326,51.713,51.713,0,0,0,11.737-5.657,63.338,63.338,0,0,0,6.86-5.16,52.09,52.09,0,0,0,8.155-8.977,54.4,54.4,0,0,0,7.134-13.264,55.205,55.205,0,0,0,3.138-12.98,56.577,56.577,0,0,0-.505-15.865,54.925,54.925,0,0,0-6.474-18.148,50.209,50.209,0,0,0-6.332-8.831,57.217,57.217,0,0,0-9.26-8.513,56.05,56.05,0,0,0-14.043-7.422,69.221,69.221,0,0,0-10.52-2.689c-1.372-.252-2.8-.134-4.156-.511a54.6,54.6,0,0,1,22.191,3.908,55.969,55.969,0,0,1,14.678,8.635,55.546,55.546,0,0,1,19.589,33.781,56.534,56.534,0,0,1,.6,13.615,53.068,53.068,0,0,1-5.994,21.017,58.174,58.174,0,0,1-8.241,11.811,55.5,55.5,0,0,1-15.192,11.87,54.653,54.653,0,0,1-16.3,5.591,40.772,40.772,0,0,1-6.929.776l-.233,0Z"/>
      <path id="Path_76" data-name="Path 76" d="M968.183,4308.134l.233,0C968.341,4308.259,968.264,4308.262,968.183,4308.134Z"/>
      <text id="_100_" data-name="100%" transform="translate(912.623 4266.085)" font-size="42.328" font-family="Helvetica"><tspan x="0" y="0">100%</tspan></text>
      <text id="_100_2" data-name="100%" transform="translate(915.594 4266.085)" font-size="42.328" font-family="Helvetica"><tspan x="0" y="0">100%</tspan></text>
    </g>
    <g id="Group_41" data-name="Group 41">
      <path id="Path_77" data-name="Path 77" d="M918.989,4304.591a75.989,75.989,0,0,1-10.248-11.015c-9.948-13.456-14.731-28.594-13.41-45.238,2.054-25.876,14.942-44.9,37.968-56.865,10.358-5.383,21.548-7.437,33.19-6.967,26.768,1.081,51.024,18.281,60.4,43.539,9.138,24.606,5.216,47.415-10.946,68.092a72.3,72.3,0,0,1-8.162,8.414q-1.039.81-2.079,1.62a67.529,67.529,0,0,1-39.636,14.668,80.27,80.27,0,0,1-12.61-.58,5.548,5.548,0,0,0-.55-.144,68.223,68.223,0,0,1-22.887-7.891A80.481,80.481,0,0,1,918.989,4304.591Zm46.916,3.543c.081.128.158.125.233,0a40.773,40.773,0,0,0,6.929-.776,54.653,54.653,0,0,0,16.3-5.591,55.5,55.5,0,0,0,15.192-11.87,58.177,58.177,0,0,0,8.241-11.811,53.068,53.068,0,0,0,5.994-21.017,56.534,56.534,0,0,0-.6-13.615,55.5,55.5,0,0,0-34.267-42.416,54.606,54.606,0,0,0-22.191-3.908,52.883,52.883,0,0,0-9.861,1.132,51.136,51.136,0,0,0-12.745,4.328,56.992,56.992,0,0,0-9.885,6.188,50.122,50.122,0,0,0-7.637,7.207,48.911,48.911,0,0,0-5.2,6.9,47.691,47.691,0,0,0-3.991,7.689c-.587,1.6-1.285,3.149-1.846,4.766a53.2,53.2,0,0,0-2.669,14.443,44.834,44.834,0,0,0,.169,8.717,64.94,64.94,0,0,0,1.87,9.507,56.415,56.415,0,0,0,4.044,10.064,54.169,54.169,0,0,0,7.79,11.41,75.948,75.948,0,0,0,6.673,6.419,31.64,31.64,0,0,0,5.565,3.971,77.815,77.815,0,0,0,8.068,4.109,66.855,66.855,0,0,0,7.68,2.549,51.221,51.221,0,0,0,9.109,1.527c1.168.1,2.379.622,3.578.091Z" fill="#fbc701"/>
      <path id="Path_78" data-name="Path 78" d="M1010.334,4309.034q3.378,5.815,6.756,11.631,8.5,14.679,16.984,29.361c.019.034.037.068.052.1.63,1.474,2.12,2.658,2.131,4.251.011,1.513-.713,3.033-1.118,4.549q-4.212,15.753-8.414,31.509c-.241.906-.44,1.293-1.591.979-10.782-2.942-21.571-5.865-32.4-8.621a8.477,8.477,0,0,1-5.967-4.423c-6.48-11.611-13.251-23.06-19.918-34.567q-1.727-2.982-3.452-5.963c-1.711-2.98-3.436-5.952-5.125-8.944a19,19,0,0,1-1.78-3.262,29.119,29.119,0,0,0,5.357.4,69.488,69.488,0,0,0,10.4-.6,68.31,68.31,0,0,0,13.627-2.931A73.605,73.605,0,0,0,1010.334,4309.034Z" fill="#6cd2ff"/>
      <path id="Path_79" data-name="Path 79" d="M961.086,4341.76q-11.266,19.52-22.521,39.046a2.211,2.211,0,0,1-1.46,1.146q-17.872,4.764-35.732,9.577c-.693.187-.918.021-1.1-.646q-4.835-18.034-9.732-36.052a1.774,1.774,0,0,1,.293-1.494q7.826-13.543,15.648-27.088,4.718-8.166,9.443-16.326a6.769,6.769,0,0,1,.467-.633c.48-.07.767.235,1.094.515a56.753,56.753,0,0,0,6.576,4.786,68.877,68.877,0,0,0,10.748,5.64,73.232,73.232,0,0,0,13.875,4.293c.923.178,2.082.055,2.67,1.055,2.267,3.857,4.466,7.756,6.761,11.6C959.051,4338.736,959.685,4340.5,961.086,4341.76Z" fill="#55d3ff"/>
      <path id="Path_80" data-name="Path 80" d="M1010.334,4309.034a73.605,73.605,0,0,1-24.465,13.479,68.31,68.31,0,0,1-13.627,2.931,69.488,69.488,0,0,1-10.4.6,29.119,29.119,0,0,1-5.357-.4,31.3,31.3,0,0,1-3.03-5.378,80.27,80.27,0,0,0,12.61.58,67.529,67.529,0,0,0,39.636-14.668q1.038-.812,2.079-1.62Z" fill="#50a0b2"/>
      <path id="Path_81" data-name="Path 81" d="M953.46,4320.259a31.3,31.3,0,0,0,3.03,5.378,19,19,0,0,0,1.78,3.262c1.689,2.992,3.414,5.964,5.125,8.944q-1.155,1.958-2.309,3.917c-1.4-1.26-2.035-3.024-2.967-4.584-2.3-3.841-4.494-7.74-6.761-11.6-.588-1-1.747-.877-2.67-1.055a73.232,73.232,0,0,1-13.875-4.293,68.877,68.877,0,0,1-10.748-5.64,56.753,56.753,0,0,1-6.576-4.786c-.327-.28-.614-.585-1.094-.515a52.39,52.39,0,0,1,2.594-4.7,80.481,80.481,0,0,0,11.034,7.633,68.223,68.223,0,0,0,22.887,7.891A5.548,5.548,0,0,1,953.46,4320.259Z" fill="#4a8a91"/>
      <path id="Path_82" data-name="Path 82" d="M962.45,4308.137c-1.2.531-2.41.006-3.578-.091a51.221,51.221,0,0,1-9.109-1.527,66.855,66.855,0,0,1-7.68-2.549,77.815,77.815,0,0,1-8.068-4.109,31.64,31.64,0,0,1-5.565-3.971,75.948,75.948,0,0,1-6.673-6.419,54.169,54.169,0,0,1-7.79-11.41A56.415,56.415,0,0,1,909.943,4268a64.94,64.94,0,0,1-1.87-9.507,44.834,44.834,0,0,1-.169-8.717,53.2,53.2,0,0,1,2.669-14.443c.561-1.617,1.259-3.167,1.846-4.766a47.691,47.691,0,0,1,3.991-7.689,48.911,48.911,0,0,1,5.2-6.9,50.122,50.122,0,0,1,7.637-7.207,56.992,56.992,0,0,1,9.885-6.188,51.136,51.136,0,0,1,12.745-4.328,52.883,52.883,0,0,1,9.861-1.132c1.36.377,2.784.259,4.156.511a69.22,69.22,0,0,1,10.52,2.689,56.051,56.051,0,0,1,14.043,7.422,57.263,57.263,0,0,1,9.26,8.513,50.208,50.208,0,0,1,6.332,8.831,54.925,54.925,0,0,1,6.474,18.148,56.614,56.614,0,0,1,.505,15.865,55.205,55.205,0,0,1-3.138,12.98,54.406,54.406,0,0,1-7.134,13.264,52.172,52.172,0,0,1-8.155,8.977,63.332,63.332,0,0,1-6.86,5.16A51.733,51.733,0,0,1,976,4305.142a58.56,58.56,0,0,1-9.311,2.326A20.37,20.37,0,0,0,962.45,4308.137Z" fill="#ebbe06"/>
      <path id="Path_83" data-name="Path 83" d="M962.45,4308.137a20.37,20.37,0,0,1,4.241-.669,58.56,58.56,0,0,0,9.311-2.326,51.733,51.733,0,0,0,11.737-5.657,63.332,63.332,0,0,0,6.86-5.16,52.172,52.172,0,0,0,8.155-8.977,54.406,54.406,0,0,0,7.134-13.264,55.205,55.205,0,0,0,3.138-12.98,56.614,56.614,0,0,0-.505-15.865,54.925,54.925,0,0,0-6.474-18.148,50.208,50.208,0,0,0-6.332-8.831,57.263,57.263,0,0,0-9.26-8.513,56.051,56.051,0,0,0-14.043-7.422,69.22,69.22,0,0,0-10.52-2.689c-1.372-.252-2.8-.134-4.156-.511a54.606,54.606,0,0,1,22.191,3.908,55.985,55.985,0,0,1,14.678,8.635,55.546,55.546,0,0,1,19.589,33.781,56.534,56.534,0,0,1,.6,13.615,53.068,53.068,0,0,1-5.994,21.017,58.177,58.177,0,0,1-8.241,11.811,55.5,55.5,0,0,1-15.192,11.87,54.653,54.653,0,0,1-16.3,5.591,40.773,40.773,0,0,1-6.929.776l-.233,0Z" fill="#cca201"/>
      <path id="Path_84" data-name="Path 84" d="M965.905,4308.134l.233,0C966.063,4308.259,965.986,4308.262,965.905,4308.134Z" fill="#ebbe06"/>
      <text id="_100_3" data-name="100%" transform="translate(910.345 4266.085)" fill="#cca201" font-size="42.328" font-family="Helvetica"><tspan x="0" y="0">100%</tspan></text>
      <text id="_100_4" data-name="100%" transform="translate(913.316 4266.085)" fill="#ffd13e" font-size="42.328" font-family="Helvetica"><tspan x="0" y="0">100%</tspan></text>
    </g>
  </g>
</svg>
