<svg xmlns="http://www.w3.org/2000/svg" width="54.221" height="23.114" viewBox="0 0 54.221 23.114">
  <g id="Group_67" data-name="Group 67" transform="translate(-402 -57.646)">
    <path id="Path_136" data-name="Path 136" d="M410.558,61.3"/>
    <path id="Path_137" data-name="Path 137" d="M445.387,80.508c-.022-.013-.053-.033-.09-.059h0a1.27,1.27,0,0,1-.364-.363,3.739,3.739,0,0,1-.382-.771,4.884,4.884,0,0,1-.147-.474l-.048-.207v0h0q-1.111-4.734-2.222-9.469a41.625,41.625,0,0,0-26.062.115q-1.17,4.433-2.047,9.093v0l-.1.492a3.362,3.362,0,0,1-.421,1.228,1.846,1.846,0,0,1-.364.364c-.036.026-.068.046-.09.059l.085.252,1.1-.359a50.748,50.748,0,0,1,30.035.03l1.034.329Z"/>
    <path id="Path_138" data-name="Path 138" d="M410.583,80.5V80.2a1.376,1.376,0,0,1-.3-.206,1.438,1.438,0,0,1-.374-.529c-.025-.071-.051-.142-.075-.217-.006-.021-.011-.042-.015-.06h0a11.194,11.194,0,0,1-.53-3.721.972.972,0,0,0,.345-.724,1.21,1.21,0,0,0-1.084-1.069l-.054-8.692-.554.192L403.458,66.7l.022-.012a10.091,10.091,0,0,1-1.015.294c-.1.019-.2.027-.2.027a1.8,1.8,0,0,1-.211.006L402,67.24l1.008.351h0l4.873,1.694q-.027,2.194-.055,4.39a1.206,1.206,0,0,0-1.083,1.078.981.981,0,0,0,.372.738,15.328,15.328,0,0,1-.788,3.991,1.427,1.427,0,0,1-.367.513,1.4,1.4,0,0,1-.3.206l-.005.314,1.01-.1c.451-.032.927-.052,1.431-.053.473,0,.922.015,1.35.041l.785.062.083.008h0Z"/>
    <path id="Path_139" data-name="Path 139" d="M455.174,67.589l1.047-.352-.08-.254a1.806,1.806,0,0,1-.2.009,2.035,2.035,0,0,1-.338-.035,3.643,3.643,0,0,1-.471-.115v.007l-.01,0v0l-25.439-8.694a.6.6,0,0,1-.394-.5h-.409a.719.719,0,0,1-.155.335.728.728,0,0,1-.192.164l-11.607,3.962-7.666,2.617q.075,2.556.148,5.11l5.14,1.768.78-2.888a39.945,39.945,0,0,1,27.569-.059q.357,1.5.715,3L455.151,67.6h0l.022-.008Z"/>
  </g>
</svg>
