<svg xmlns="http://www.w3.org/2000/svg" width="28.059" height="27.214" viewBox="0 0 28.059 27.214">
  <path id="Path_67" data-name="Path 67" d="M872.015,4925.477c.118-.53.17-.924.294-1.293,1.4-4.186.486-7.584-3.2-10.238-.972-.7-2.369-1.618-1.822-3.146.487-1.359,2.021-1.1,3.108-1.114,4.6-.072,7.546-2.1,8.736-6.66.275-1.052.759-2.46,2.216-2.37,1.2.075,1.573,1.362,1.856,2.3,1.375,4.557,4.318,6.831,9.123,6.767.966-.013,2.3-.207,2.766.993.545,1.411-.73,2.237-1.6,2.822-4.257,2.856-4.676,6.693-3.24,11.167.3.949.681,2.1-.441,2.847-.934.618-1.73-.109-2.543-.47a1.436,1.436,0,0,1-.351-.171c-3.844-3.23-7.6-2.927-11.523,0C873.742,4928.149,871.844,4928.647,872.015,4925.477Z" transform="translate(-867.167 -4900.652)" fill="#fcc000"/>
</svg>
