<svg xmlns="http://www.w3.org/2000/svg" width="38.557" height="34.453" viewBox="0 0 38.557 34.453">
  <path id="Path_335" data-name="Path 335" d="M1051,6201.959c-.175.843-.36,1.684-.522,2.53q-1.577,8.235-3.142,16.473-1.148,6.02-2.287,12.042a1.721,1.721,0,0,1-1.025,1.463,1.632,1.632,0,0,1-1.593-.284c-3.009-2.043-6.024-4.078-9.022-6.138a.689.689,0,0,0-.963.018c-1.489,1.108-3.006,2.179-4.514,3.262a1.557,1.557,0,0,1-2.64-.956q-1.233-4.65-2.453-9.3a.6.6,0,0,0-.414-.463q-4.392-1.666-8.777-3.352a1.543,1.543,0,0,1-1.155-1.877,1.616,1.616,0,0,1,1.1-1.136q4.332-1.72,8.661-3.448,13.148-5.232,26.3-10.454a2.732,2.732,0,0,1,1.195-.21c.671.057,1.02.567,1.25,1.156Zm-8.585,28.52,4.636-24.32-.074-.035-16.732,16.1Zm-16.16-8.436a9.484,9.484,0,0,1,.754-.933q7.668-7.395,15.35-14.776c.109-.1.227-.2.34-.3l-.06-.069-24.463,9.733c.166.068.246.1.327.134,1.953.748,3.9,1.5,5.861,2.24a1.774,1.774,0,0,1,1.192,1.333C1025.772,6220.3,1026.027,6221.192,1026.255,6222.043Zm3.978,3.867-3.61-2.457,1.12,4.247Z" transform="translate(-1012.443 -6200.118)" fill="#fff"/>
</svg>
