<svg xmlns="http://www.w3.org/2000/svg" width="40.394" height="40.394" viewBox="0 0 40.394 40.394">
  <g id="Group_17" data-name="Group 17" transform="translate(-760.031 -5104.666)">
    <path id="Path_39" data-name="Path 39" d="M778.729,5104.666h3c.076.018.152.039.229.052a32.717,32.717,0,0,1,3.67.666,19.847,19.847,0,0,1,13.969,13.707,36.083,36.083,0,0,1,.83,4.273v3c-.024.22-.047.44-.072.66a20.254,20.254,0,0,1-15.45,17.507c-1.041.25-2.116.358-3.176.531h-3c-.076-.018-.152-.039-.229-.052a32.61,32.61,0,0,1-3.67-.666,19.844,19.844,0,0,1-13.969-13.707,36.045,36.045,0,0,1-.83-4.273v-3c.054-.454.1-.91.163-1.362a20.248,20.248,0,0,1,15.359-16.805C776.595,5104.949,777.669,5104.839,778.729,5104.666Zm1.5,22.731v-.008c-1.432,0-2.868-.064-4.3.013a6.592,6.592,0,0,0-6.227,5.547,3.166,3.166,0,0,0,.937,3.271,14.843,14.843,0,0,0,18.77.332,3.3,3.3,0,0,0,1.4-3.132,6.658,6.658,0,0,0-6.125-6.012C783.2,5127.347,781.712,5127.4,780.227,5127.4Zm-6.624-10a6.629,6.629,0,1,0,6.582-6.644A6.6,6.6,0,0,0,773.6,5117.4Z" fill="#60cdd8"/>
  </g>
</svg>
