<svg xmlns="http://www.w3.org/2000/svg" width="139.433" height="34.8" viewBox="0 0 139.433 34.8">
  <g id="Group_95" data-name="Group 95" transform="translate(-401.986 -6390.509)">
    <g id="Group_93" data-name="Group 93">
      <path id="Path_330" data-name="Path 330" d="M449.541,6418.353c.089-.236.15-.412.222-.584q3.852-9.213,7.706-18.424a2.55,2.55,0,0,1,2.773-1.858h4.217c1.447,6.941,2.891,13.864,4.345,20.834h-4.91c-.179-.837-.383-1.68-.533-2.533-.073-.418-.226-.583-.676-.578-1.978.026-3.956.022-5.934.008a.6.6,0,0,0-.687.473c-.252.781-.541,1.551-.836,2.316-.052.136-.207.33-.317.332C453.146,6418.359,451.381,6418.353,449.541,6418.353Zm12.812-7.369-1.623-7.772-.142.009c-.926,2.565-1.853,5.131-2.8,7.763Z" fill="#fff"/>
      <path id="Path_331" data-name="Path 331" d="M416.094,6411.566l5.565-14.074h5.6c-.078.211-.14.4-.216.581q-4.145,9.915-8.285,19.831a.628.628,0,0,1-.68.479c-1.575-.024-3.15-.008-4.726-.009-.154,0-.309-.016-.5-.027l-1.194-4.619c-1.045-4.043-2.1-8.082-3.126-12.13a2.5,2.5,0,0,0-1.6-1.926c-1.462-.521-2.94-1-4.412-1.487-.164-.054-.335-.087-.533-.138a2.225,2.225,0,0,1,0-.26c.01-.084.036-.167.07-.316h.561q4.174,0,8.349,0a2.531,2.531,0,0,1,2.773,2.293q1.1,5.821,2.2,11.643c.01.05.03.1.045.148Z" fill="#fff"/>
      <path id="Path_332" data-name="Path 332" d="M434.339,6417.583l.965-4.5c.281.124.511.228.743.328a9.939,9.939,0,0,0,5.722.856,4.268,4.268,0,0,0,1.669-.686,1.5,1.5,0,0,0,.134-2.444,13.528,13.528,0,0,0-1.911-1.273c-.908-.554-1.875-1.021-2.743-1.631a5.055,5.055,0,0,1-2.253-3.291,5.758,5.758,0,0,1,1.582-5.111,8.474,8.474,0,0,1,4.406-2.385,14.067,14.067,0,0,1,8.034.611l-.908,4.252c-.868-.244-1.69-.517-2.531-.7a7.039,7.039,0,0,0-3.174-.05,3.792,3.792,0,0,0-1.4.656,1.259,1.259,0,0,0-.078,2.043,8.976,8.976,0,0,0,1.5,1.045c1,.6,2.056,1.125,3.034,1.765a5.053,5.053,0,0,1,2.414,3.238,6.172,6.172,0,0,1-2.212,6.287,9.113,9.113,0,0,1-4.742,1.943,16.726,16.726,0,0,1-7.66-.7C434.735,6417.763,434.55,6417.671,434.339,6417.583Z" fill="#fff"/>
      <path id="Path_333" data-name="Path 333" d="M429.669,6397.5h5.338c-.164.792-.319,1.556-.481,2.317q-1.937,9.074-3.87,18.146c-.054.255-.119.408-.423.406-1.611-.012-3.221-.007-4.832-.01a.87.87,0,0,1-.182-.047Z" fill="#fff"/>
    </g>
    <g id="Group_94" data-name="Group 94">
      <circle id="Ellipse_14" data-name="Ellipse 14" cx="17.4" cy="17.4" r="17.4" transform="translate(485.034 6390.509)" fill="#fff"/>
      <circle id="Ellipse_15" data-name="Ellipse 15" cx="17.4" cy="17.4" r="17.4" transform="translate(506.619 6390.509)" fill="#fff" opacity="0.71"/>
    </g>
  </g>
</svg>
