<svg xmlns="http://www.w3.org/2000/svg" width="51.149" height="29.325" viewBox="0 0 51.149 29.325">
  <path id="Path_334" data-name="Path 334" d="M1036.132,6127.592c-.02,1.287-.047,2.5-.054,3.715a6.6,6.6,0,0,0,.228,1.937,1.925,1.925,0,0,0,.651,1.029.616.616,0,0,0,.565.112,2.323,2.323,0,0,0,.924-.548,11.644,11.644,0,0,0,1.7-1.929,36.418,36.418,0,0,0,4.374-7.93c.195-.471.392-.941.577-1.416a1.6,1.6,0,0,1,.742-.863,1.9,1.9,0,0,1,.672-.107c.107-.011.218.022.327.022h7.405c.5,0,1.006-.023,1.507.008a2.445,2.445,0,0,1,.762.2.9.9,0,0,1,.575.864,3.756,3.756,0,0,1-.3,1.47,18.173,18.173,0,0,1-1.86,3.41c-1.384,2.108-2.944,4.086-4.448,6.107-.5.666-.957,1.361-1.4,2.064a2.04,2.04,0,0,0-.339,1.328,2.1,2.1,0,0,0,.592,1.2c.534.578,1.083,1.145,1.657,1.682a44.452,44.452,0,0,1,4.34,4.477,12.83,12.83,0,0,1,1.616,2.431,2.864,2.864,0,0,1,.221.717,1.344,1.344,0,0,1-.644,1.461,3.126,3.126,0,0,1-1.65.5c-2.176.064-4.357.049-6.529.176a5.482,5.482,0,0,1-3.849-1.325,17.7,17.7,0,0,1-2.161-2.163c-.722-.8-1.433-1.614-2.188-2.383a5.113,5.113,0,0,0-1.131-.835,1.3,1.3,0,0,0-1.678.267,3.5,3.5,0,0,0-.837,1.551,10.477,10.477,0,0,0-.391,2.617,5.325,5.325,0,0,1-.072.653,1.51,1.51,0,0,1-1.031,1.224,2.988,2.988,0,0,1-1.129.227c-.975-.013-1.951,0-2.927,0a14.493,14.493,0,0,1-5.032-.961,19.438,19.438,0,0,1-7.57-5.175,47.664,47.664,0,0,1-5.477-7.353,104.019,104.019,0,0,1-6.657-12.65,1.874,1.874,0,0,1-.159-.944.645.645,0,0,1,.373-.548,2.559,2.559,0,0,1,1.178-.278c2.448-.01,4.9-.006,7.346-.007a2.245,2.245,0,0,1,1.968,1.441,35.283,35.283,0,0,0,2.288,4.864,42.623,42.623,0,0,0,3.223,5.06,6.382,6.382,0,0,0,1.5,1.527,1.193,1.193,0,0,0,1.328.133,1.268,1.268,0,0,0,.509-.593,5.968,5.968,0,0,0,.49-1.943,28.852,28.852,0,0,0,.094-4.7,16.62,16.62,0,0,0-.284-2.79c-.049-.226-.128-.447-.175-.674a1.511,1.511,0,0,0-.8-1,3.724,3.724,0,0,0-1.676-.549c-.17-.012-.229-.087-.16-.241a1.744,1.744,0,0,1,.256-.407,3.411,3.411,0,0,1,2.039-1.1,18.071,18.071,0,0,1,3.472-.26c1.3,0,2.6.018,3.893.078a9.014,9.014,0,0,1,1.677.279,1.953,1.953,0,0,1,1.581,1.852,19.209,19.209,0,0,1,.066,2.146C1036.23,6125.715,1036.17,6126.689,1036.132,6127.592Z" transform="translate(-1006.047 -6120.385)" fill="#fff"/>
</svg>
